<svg width="200" height="300" viewBox="0 0 200 300" fill="none" xmlns="http://www.w3.org/2000/svg">
  <path d="M100 87.5L114.754 135.246H162.5L123.873 164.754L138.627 212.5L100 182.991L61.3729 212.5L76.1271 164.754L37.5 135.246H85.2458L100 87.5Z" fill="#7D1428"/>
  <path d="M15 0L18.541 11.459H30L20.7295 18.541L24.2705 30L15 22.918L5.72949 30L9.27051 18.541L0 11.459H11.459L15 0Z" fill="#7D1428"/>
  <path d="M185 270L188.541 281.459H200L190.729 288.541L194.271 300L185 292.918L175.729 300L179.271 288.541L170 281.459H181.459L185 270Z" fill="#7D1428"/>
</svg>
