<svg width="200" height="301" viewBox="0 0 200 301" fill="none" xmlns="http://www.w3.org/2000/svg">
<path d="M148.798 144.709C151.487 143.226 153.568 140.921 155.041 137.793C156.496 134.693 157.224 130.864 157.224 126.308C157.224 124.582 157.095 123.207 156.837 122.183C156.763 121.832 156.671 121.522 156.561 121.252C156.487 121.064 156.45 120.875 156.45 120.686C158.494 120.686 159.986 121.279 160.925 122.466C161.975 123.76 162.5 125.849 162.5 128.734C162.5 130.541 162.233 132.32 161.699 134.073C161.165 135.852 160.41 137.564 159.434 139.209C158.513 140.773 157.417 142.228 156.146 143.577C154.857 144.952 153.467 146.138 151.975 147.135C148.844 149.211 145.732 150.249 142.638 150.249C141.791 150.249 141.036 150.196 140.373 150.088L139.876 99.1307L127.97 149.845H120.787L120.29 99.1307L108.412 149.845H104.434L120.18 88.1304H128.329L128.992 130.271L139.738 88.1304H147.887L148.798 144.709Z" fill="#7D1428"/>
<path d="M87.9972 87.6451C90.3361 87.6451 92.0672 88.6157 93.1906 90.5569C94.1667 92.2285 94.6547 94.372 94.6547 96.9872C94.6547 98.2275 94.5534 99.6699 94.3508 101.315C94.1298 102.959 93.8076 105.076 93.384 107.664C92.9604 110.306 92.6473 112.409 92.4448 113.973C92.2238 115.564 92.1133 116.939 92.1133 118.098C92.1133 120.929 92.7947 122.344 94.1575 122.344C95.1151 122.344 95.9991 121.603 96.8094 120.12C97.4908 118.853 98.0801 117.047 98.5774 114.701L102.417 88.1304H110.566L102.362 144.466L93.9917 146.124L97.0304 125.256C95.9254 127.063 94.7376 128.33 93.4669 129.058C92.5276 129.597 91.5147 129.867 90.4282 129.867C88.5129 129.867 87.0028 129.139 85.8978 127.683C84.7192 126.092 84.1298 123.706 84.1298 120.525C84.1298 118.61 84.3692 116.116 84.8481 113.043C84.977 112.153 85.1888 110.818 85.4834 109.039C86.0175 106.046 86.4042 103.66 86.6437 101.881C86.791 100.748 86.8646 99.8317 86.8646 99.1307C86.8646 98.0252 86.6989 97.1625 86.3674 96.5424C86.0175 95.9492 85.4282 95.6526 84.5995 95.6526C83.4761 95.6526 82.5276 96.3267 81.7541 97.6747C81.1648 98.6993 80.5295 100.465 79.8481 102.973H77.4724C78.872 96.9063 80.64 92.6599 82.7762 90.2334C84.2864 88.5079 86.0267 87.6451 87.9972 87.6451Z" fill="#7D1428"/>
<path d="M71.5884 87.8069C74.3877 87.8069 76.5516 88.8045 78.0801 90.7996C79.7928 93.0104 80.6492 96.3671 80.6492 100.87C80.6492 102.568 80.5295 104.442 80.2901 106.491C80.0506 108.567 79.6823 110.657 79.1851 112.76C78.0433 117.774 76.4134 121.778 74.2956 124.771C71.7357 128.438 68.6878 130.271 65.1519 130.271C60.3085 130.271 57.8867 125.863 57.8867 117.047V116.966C57.7762 116.912 57.6842 116.885 57.6105 116.885H57.279C56.0267 116.885 54.5442 117.397 52.8315 118.422C51.3214 119.338 49.8941 120.484 48.5497 121.859L48.0525 119.594C49.1575 117.896 50.5847 116.453 52.3343 115.267C54.0654 114.081 55.9807 113.231 58.0801 112.719C58.3011 108.972 58.7983 105.547 59.5718 102.447C60.3453 99.3733 61.3398 96.7311 62.5553 94.5203C63.7523 92.3634 65.1243 90.7052 66.6713 89.5459C68.2182 88.3865 69.8573 87.8069 71.5884 87.8069ZM69.3232 95.2482C68.6602 95.2482 67.988 95.6796 67.3066 96.5424C66.6068 97.4321 65.953 98.6588 65.3453 100.223C64.7376 101.786 64.2127 103.62 63.7707 105.723C63.3287 107.826 62.9972 110.077 62.7762 112.477C63.3287 112.692 63.7247 113.097 63.9641 113.69C64.1851 114.283 64.2956 115.038 64.2956 115.955C64.2956 117.087 64.139 118.031 63.826 118.786C63.5129 119.54 63.0801 120.093 62.5276 120.444C62.6013 122.196 62.7947 123.45 63.1077 124.205C63.2735 124.582 63.4853 124.852 63.7431 125.014C63.9825 125.175 64.2956 125.256 64.6823 125.256C65.953 125.256 67.1961 123.854 68.4116 121.05C69.535 118.516 70.4558 115.388 71.174 111.668C71.8739 108.028 72.2238 104.793 72.2238 101.962C72.2238 100.587 72.1777 99.4677 72.0856 98.6049C71.9751 97.7422 71.8002 97.0681 71.5608 96.5828C71.3398 96.0975 71.0543 95.747 70.7044 95.5313C70.3545 95.3426 69.8941 95.2482 69.3232 95.2482Z" fill="#7D1428"/>
<path d="M49.3785 87.6451C51.1832 87.6451 52.6105 88.427 53.6602 89.9908C54.8389 91.7163 55.4282 94.2372 55.4282 97.5534C55.4282 99.1172 55.2809 100.924 54.9862 102.973L51.5884 126.227H53.4669L52.9972 129.543H51.1464L49.4337 140.988L41.0635 142.646L42.9972 129.543H39.5995L40.0414 126.227H43.4392L47.058 101.395C47.2053 100.694 47.279 99.8047 47.279 98.7262C47.279 97.5939 47.1041 96.7985 46.7541 96.3402C46.3858 95.8818 45.7965 95.6526 44.9862 95.6526C44.4337 95.6526 43.8996 95.8279 43.384 96.1784C42.8499 96.5558 42.3619 97.0681 41.9199 97.7152C41.0175 99.0363 40.3361 100.789 39.8757 102.973H37.5C38.5129 98.7936 39.7836 95.4639 41.3122 92.9835C42.6013 90.9614 44.0562 89.5054 45.6768 88.6157C46.8554 87.9686 48.0893 87.6451 49.3785 87.6451Z" fill="#7D1428"/>
<path d="M51.2017 155.79C48.5129 157.273 46.4319 159.578 44.9586 162.706C43.5037 165.806 42.7762 169.635 42.7762 174.191C42.7762 175.917 42.9052 177.292 43.163 178.316C43.2366 178.667 43.3287 178.977 43.4392 179.246C43.5129 179.435 43.5497 179.624 43.5497 179.813C41.5055 179.813 40.0138 179.219 39.0746 178.033C38.0249 176.739 37.5 174.65 37.5 171.765C37.5 169.958 37.767 168.179 38.3011 166.426C38.8352 164.647 39.5902 162.935 40.5663 161.29C41.4871 159.726 42.5829 158.27 43.8536 156.922C45.1427 155.547 46.5331 154.361 48.0249 153.363C51.1556 151.287 54.268 150.249 57.3619 150.249C58.209 150.249 58.9641 150.303 59.6271 150.411L60.1243 201.368L72.0304 150.654H79.2127L79.7099 201.368L91.5884 150.654H95.5663L79.8204 212.368H71.6713L71.0083 170.228L60.2624 212.368H52.1133L51.2017 155.79Z" fill="#7D1428"/>
<path d="M112.003 212.854C109.664 212.854 107.933 211.883 106.809 209.942C105.833 208.27 105.345 206.127 105.345 203.512C105.345 202.271 105.447 200.829 105.649 199.184C105.87 197.54 106.192 195.423 106.616 192.835C107.04 190.193 107.353 188.09 107.555 186.526C107.776 184.935 107.887 183.56 107.887 182.401C107.887 179.57 107.205 178.154 105.843 178.154C104.885 178.154 104.001 178.896 103.191 180.379C102.509 181.646 101.92 183.452 101.423 185.798L97.5829 212.368H89.4337L97.6381 156.033L106.008 154.375L102.97 175.243C104.075 173.436 105.262 172.169 106.533 171.441C107.472 170.902 108.485 170.632 109.572 170.632C111.487 170.632 112.997 171.36 114.102 172.816C115.281 174.407 115.87 176.793 115.87 179.974C115.87 181.889 115.631 184.383 115.152 187.456C115.023 188.346 114.811 189.68 114.517 191.46C113.983 194.453 113.596 196.839 113.356 198.618C113.209 199.751 113.135 200.667 113.135 201.368C113.135 202.474 113.301 203.336 113.633 203.957C113.982 204.55 114.572 204.846 115.401 204.846C116.524 204.846 117.472 204.172 118.246 202.824C118.835 201.8 119.471 200.034 120.152 197.526H122.528C121.128 203.593 119.36 207.839 117.224 210.265C115.714 211.991 113.973 212.854 112.003 212.854Z" fill="#7D1428"/>
<path d="M128.412 212.692C125.612 212.692 123.448 211.694 121.92 209.699C120.207 207.488 119.351 204.132 119.351 199.629C119.351 197.931 119.471 196.057 119.71 194.008C119.949 191.932 120.318 189.842 120.815 187.739C121.957 182.724 123.587 178.721 125.704 175.728C128.264 172.061 131.312 170.228 134.848 170.228C139.692 170.228 142.113 174.636 142.113 183.452V183.533C142.224 183.587 142.316 183.614 142.389 183.614H142.721C143.973 183.614 145.456 183.102 147.169 182.077C148.679 181.161 150.106 180.015 151.45 178.64L151.948 180.905C150.843 182.603 149.415 184.046 147.666 185.232C145.935 186.418 144.019 187.267 141.92 187.78C141.699 191.527 141.202 194.951 140.428 198.052C139.655 201.126 138.66 203.768 137.445 205.979C136.248 208.136 134.876 209.794 133.329 210.953C131.782 212.112 130.143 212.692 128.412 212.692ZM130.677 205.251C131.34 205.251 132.012 204.819 132.693 203.957C133.393 203.067 134.047 201.84 134.655 200.276C135.262 198.713 135.787 196.879 136.229 194.776C136.671 192.673 137.003 190.422 137.224 188.022C136.671 187.807 136.275 187.402 136.036 186.809C135.815 186.216 135.704 185.461 135.704 184.544C135.704 183.412 135.861 182.468 136.174 181.713C136.487 180.958 136.92 180.406 137.472 180.055C137.399 178.303 137.205 177.049 136.892 176.294C136.727 175.917 136.515 175.647 136.257 175.485C136.017 175.324 135.704 175.243 135.318 175.243C134.047 175.243 132.804 176.645 131.588 179.449C130.465 181.983 129.544 185.111 128.826 188.831C128.126 192.471 127.776 195.706 127.776 198.537C127.776 199.912 127.822 201.031 127.914 201.894C128.025 202.757 128.2 203.431 128.439 203.916C128.66 204.401 128.946 204.752 129.296 204.968C129.645 205.156 130.106 205.251 130.677 205.251Z" fill="#7D1428"/>
<path d="M150.622 212.854C148.817 212.854 147.389 212.072 146.34 210.508C145.161 208.783 144.572 206.262 144.572 202.945C144.572 201.382 144.719 199.575 145.014 197.526L148.412 174.272H146.533L147.003 170.956H148.854L150.566 159.511L158.936 157.853L157.003 170.956H160.401L159.959 174.272H156.561L152.942 199.103C152.795 199.804 152.721 200.694 152.721 201.773C152.721 202.905 152.896 203.7 153.246 204.159C153.614 204.617 154.203 204.846 155.014 204.846C155.566 204.846 156.1 204.671 156.616 204.321C157.15 203.943 157.638 203.431 158.08 202.784C158.983 201.463 159.664 199.71 160.124 197.526H162.5C161.487 201.705 160.216 205.035 158.688 207.515C157.399 209.538 155.944 210.993 154.323 211.883C153.145 212.53 151.911 212.854 150.622 212.854Z" fill="#7D1428"/>
<path d="M7.07897 3.18025C5.68982 3.89759 4.61465 5.01273 3.85347 6.52567C3.10181 8.02556 2.72598 9.87761 2.72598 12.0818C2.72598 12.9165 2.79258 13.5817 2.92579 14.0773C2.96384 14.2469 3.01142 14.3969 3.06851 14.5273C3.10657 14.6186 3.12559 14.7099 3.12559 14.8012C2.06946 14.8012 1.29876 14.5142 0.813511 13.9404C0.27117 13.3143 0 12.3035 0 10.908C0 10.0341 0.137964 9.17331 0.413892 8.32554C0.689819 7.46473 1.07992 6.63653 1.58421 5.84093C2.05994 5.08446 2.62607 4.38016 3.28259 3.72804C3.94862 3.06286 4.66698 2.48899 5.43768 2.00642C7.05519 1.00214 8.66318 0.5 10.2617 0.5C10.6993 0.5 11.0894 0.526085 11.432 0.578255L11.6889 25.2287L17.8402 0.695638H21.5509L21.8078 25.2287L27.9448 0.695638H30L21.8649 30.5501H17.6546L17.3121 10.1645L11.7602 30.5501H7.54995L7.07897 3.18025Z" fill="#7D1428"/>
<path d="M192.921 297.82C194.31 297.102 195.385 295.987 196.147 294.474C196.898 292.974 197.274 291.122 197.274 288.918C197.274 288.083 197.207 287.418 197.074 286.923C197.036 286.753 196.989 286.603 196.931 286.473C196.893 286.381 196.874 286.29 196.874 286.199C197.931 286.199 198.701 286.486 199.186 287.06C199.729 287.686 200 288.696 200 290.092C200 290.966 199.862 291.827 199.586 292.674C199.31 293.535 198.92 294.363 198.416 295.159C197.94 295.916 197.374 296.62 196.717 297.272C196.051 297.937 195.333 298.511 194.562 298.994C192.945 299.998 191.337 300.5 189.738 300.5C189.301 300.5 188.911 300.474 188.568 300.422L188.311 275.771L182.16 300.304H178.449L178.192 275.771L172.055 300.304H170L178.135 270.45H182.345L182.688 290.835L188.24 270.45H192.45L192.921 297.82Z" fill="#7D1428"/>
</svg>
